<svg xmlns="http://www.w3.org/2000/svg" viewBox="0 0 53.38 60"><defs><style>.cls-1{fill:#5f96ce;fill-rule:evenodd;}.cls-2{fill:#054e86;}.cls-3{fill:#0062a1;}.cls-4{fill:#fff;}</style></defs><title>c-plus-plus</title><g id="Layer_2" data-name="Layer 2"><g id="Resume"><g id="C_" data-name="C++"><path class="cls-1" d="M26.69,21.17A8.83,8.83,0,0,0,19,34.38l15.3-8.81A8.82,8.82,0,0,0,26.69,21.17Z"/><path class="cls-1" d="M9,30A17.73,17.73,0,0,1,42,21.13L52.73,15a5.1,5.1,0,0,0-1.93-1.88L29.47.81A5.23,5.23,0,0,0,23.8.86C21,2.53,6.81,10.65,2.59,13.09A4.93,4.93,0,0,0,0,17.64Q0,30,0,42.36A5.32,5.32,0,0,0,.62,45l10.69-6.15A17.65,17.65,0,0,1,9,30Z"/><path class="cls-2" d="M19,34.38a8.83,8.83,0,0,0,15.36-.05l-7.61-4.41Z"/><path class="cls-2" d="M26.69,47.73a17.72,17.72,0,0,1-15.38-8.91L.62,45a5.08,5.08,0,0,0,2,1.93C6.81,49.35,21,57.47,23.8,59.14a5.24,5.24,0,0,0,5.68.06L50.8,46.91a5.08,5.08,0,0,0,2-1.93L42.09,38.79A17.72,17.72,0,0,1,26.69,47.73Z"/><path class="cls-3" d="M53.38,17.64A5.3,5.3,0,0,0,52.73,15l-26,14.95L52.76,45a5.33,5.33,0,0,0,.62-2.61S53.38,25.88,53.38,17.64ZM44.54,31h-2v2h-2V31h-2V29h2v-2h2v2h2ZM52,31h-2v2h-2V31h-2V29h2v-2h2v2h2Z"/><polygon class="cls-4" points="49.92 26.93 47.89 26.93 47.89 28.96 45.86 28.96 45.86 31 47.89 31 47.89 33.03 49.92 33.03 49.92 31 51.95 31 51.95 28.96 49.92 28.96 49.92 26.93"/><polygon class="cls-4" points="42.51 26.93 40.48 26.93 40.48 28.96 38.45 28.96 38.45 31 40.48 31 40.48 33.03 42.51 33.03 42.51 31 44.54 31 44.54 28.96 42.51 28.96 42.51 26.93"/><path class="cls-4" d="M34.38,34.33a8.83,8.83,0,1,1-.06-8.76L42,21.13a17.73,17.73,0,1,0,0,17.66Z"/></g></g></g></svg>