<svg xmlns="http://www.w3.org/2000/svg" viewBox="0 0 53.38 60"><defs><style>.cls-1{fill:#9a4993;}.cls-2{fill:#6a1577;}.cls-3{fill:#813084;}.cls-4{fill:#fff;}</style></defs><title>c-sharp</title><g id="Layer_2" data-name="Layer 2"><g id="Resume"><g id="C_" data-name="C#"><path id="_Path_" data-name="&lt;Path&gt;" class="cls-1" d="M53.38,17.64A5.3,5.3,0,0,0,52.73,15a5.1,5.1,0,0,0-1.93-1.88L29.47.81A5.24,5.24,0,0,0,23.8.86C21,2.53,6.81,10.65,2.59,13.09A4.93,4.93,0,0,0,0,17.64Q0,30,0,42.36A5.32,5.32,0,0,0,.62,45a5.08,5.08,0,0,0,2,1.93C6.81,49.35,21,57.47,23.8,59.14a5.24,5.24,0,0,0,5.68.06L50.8,46.91a5.08,5.08,0,0,0,2-1.93,5.33,5.33,0,0,0,.62-2.61s0-16.48,0-24.72"/><path id="_Path_2" data-name="&lt;Path&gt;" class="cls-2" d="M26.77,29.92.62,45a5.08,5.08,0,0,0,2,1.93C6.81,49.35,21,57.47,23.8,59.14a5.24,5.24,0,0,0,5.68.06L50.8,46.91a5.08,5.08,0,0,0,2-1.93l-26-15.05"/><path id="_Path_3" data-name="&lt;Path&gt;" class="cls-2" d="M19,34.38a8.83,8.83,0,0,0,15.36-.05l-7.61-4.41L19,34.38"/><path id="_Path_4" data-name="&lt;Path&gt;" class="cls-3" d="M53.38,17.64A5.3,5.3,0,0,0,52.73,15l-26,14.95L52.76,45a5.33,5.33,0,0,0,.62-2.61s0-16.48,0-24.72"/><path id="_Path_5" data-name="&lt;Path&gt;" class="cls-4" d="M34.38,34.33a8.83,8.83,0,1,1-.06-8.76L42,21.13a17.73,17.73,0,1,0,0,17.66l-7.7-4.46"/><g id="_Group_" data-name="&lt;Group&gt;"><rect id="_Rectangle_" data-name="&lt;Rectangle&gt;" class="cls-4" x="42.38" y="25.81" width="1.75" height="8.49"/><rect id="_Rectangle_2" data-name="&lt;Rectangle&gt;" class="cls-4" x="46.27" y="25.81" width="1.75" height="8.49"/><rect id="_Rectangle_3" data-name="&lt;Rectangle&gt;" class="cls-4" x="44.33" y="23.86" width="1.75" height="8.49" transform="translate(73.31 -17.09) rotate(90)"/><rect id="_Rectangle_4" data-name="&lt;Rectangle&gt;" class="cls-4" x="44.33" y="27.75" width="1.75" height="8.49" transform="translate(77.2 -13.2) rotate(90)"/></g></g></g></g></svg>