<svg xmlns="http://www.w3.org/2000/svg" viewBox="0 0 42.8 60"><defs><style>.cls-1{fill:#0070ba;}.cls-1,.cls-2,.cls-3,.cls-4{fill-rule:evenodd;}.cls-2{fill:#1b86c1;}.cls-3{fill:#fff;}</style></defs><title>css3</title><g id="Layer_2" data-name="Layer 2"><g id="Resume"><g id="CSS3"><polygon class="cls-1" points="0 11.22 42.8 11.22 38.97 54.98 21.52 60 3.59 54.98 0 11.22"/><polygon class="cls-2" points="21.53 15.46 21.53 55.76 35.95 51.62 39.11 15.46 21.53 15.46"/><polygon class="cls-3" points="8.37 25.82 21.28 25.81 8.61 31.31 9.32 36.33 27.97 36.33 27.26 43.5 20.95 44.69 15.3 43.26 14.82 39.2 9.56 39.2 10.28 47.57 21.52 50.67 32.28 47.33 33.71 30.86 22.2 30.86 34.7 25.75 34.7 20.55 7.65 20.55 8.37 25.82"/><polygon class="cls-4" points="8.69 0 8.69 8.13 15.38 8.13 15.38 5.5 11.56 5.5 11.56 2.75 15.38 2.75 15.38 0 8.69 0"/><polygon class="cls-4" points="18.07 0 18.07 2.2 20.4 5.5 18.25 5.5 18.25 8.13 24.71 8.13 24.71 5.62 22.55 2.87 24.71 2.87 24.71 0 18.07 0"/><polygon class="cls-4" points="27.29 0 27.29 2.2 29.62 5.5 27.47 5.5 27.47 8.13 33.92 8.13 33.92 5.62 31.77 2.87 33.92 2.87 33.92 0 27.29 0"/></g></g></g></svg>