<svg xmlns="http://www.w3.org/2000/svg" viewBox="0 0 60 60"><defs><style>.cls-1{fill:#f42534;}</style></defs><title>git</title><g id="Layer_2" data-name="Layer 2"><g id="Resume"><g id="Git"><path class="cls-1" d="M58.87,27.33,32.67,1.13a3.86,3.86,0,0,0-5.46,0L21.77,6.57l6.9,6.9a4.59,4.59,0,0,1,5.81,5.85L41.13,26a4.59,4.59,0,1,1-2.75,2.59l-6.2-6.2V38.69a4.59,4.59,0,1,1-3.78-.13V22.08a4.6,4.6,0,0,1-2.5-6l-6.8-6.8-18,18a3.87,3.87,0,0,0,0,5.47l26.2,26.2a3.86,3.86,0,0,0,5.46,0L58.87,32.79A3.87,3.87,0,0,0,58.87,27.33Z"/></g></g></g></svg>