<svg xmlns="http://www.w3.org/2000/svg" viewBox="0 0 42.62 60"><defs><style>.cls-1{fill:#e54f26;}.cls-2{fill:#f16529;}.cls-3{fill:#fff;}.cls-4{fill:#ebeaea;}</style></defs><title>html5</title><g id="Layer_2" data-name="Layer 2"><g id="Resume"><g id="HTML5"><polygon class="cls-1" points="42.62 11.76 21.31 11.76 21.31 11.76 0 11.76 3.99 55.09 21.31 60 21.31 60 21.31 60 21.31 60 21.31 60 38.62 55.09 42.62 11.76"/><path d="M9.15,2.68H6.68V0H4V8.09H6.68V5.41H9.15V8.09h2.72V0H9.15ZM28.13,0h-.24L26.2,2.77,24.52,0H21.69V8.09h2.63v-4L26.2,7h0l1.92-3V8.09h2.63V0H28.13ZM13.05,2.72h2.37V8.09h2.72V2.72H20.5V0H13.05ZM34.87,5.37V0H32.15V8.09h6.51V5.37Z"/><polygon class="cls-2" points="21.31 15.29 21.31 56.33 21.31 56.33 35.34 52.35 38.75 15.29 21.31 15.29"/><polygon class="cls-3" points="34.72 20.61 7.9 20.61 9.4 36.83 9.43 36.73 27.75 36.73 27.16 43.59 21.31 45.28 15.38 43.57 15.02 39.41 9.63 39.41 10.4 47.71 21.31 50.81 32.22 47.71 33.72 31.43 14.28 31.43 13.78 25.99 34.22 25.99 34.72 20.61"/><path class="cls-4" d="M21.31,20.61H7.9L9.4,36.83l0-.1H21.31v-5.3h-7L13.78,26h7.54ZM15,39.41H9.64l.77,8.3L21.31,50.8V45.28l-5.93-1.71Z"/></g></g></g></svg>