<svg xmlns="http://www.w3.org/2000/svg" viewBox="0 0 44.25 60"><defs><style>.cls-1{fill:#0074bd;}.cls-2{fill:#ea2d2e;}</style></defs><title>java</title><g id="Layer_2" data-name="Layer 2"><g id="Resume"><g id="Java"><path id="_Path_" data-name="&lt;Path&gt;" class="cls-1" d="M14.25,46.4S12,47.73,15.88,48.18a34.35,34.35,0,0,0,12.42-.53,21.72,21.72,0,0,0,3.3,1.61C19.86,54.3,5,49,14.25,46.4Z"/><path id="_Path_2" data-name="&lt;Path&gt;" class="cls-1" d="M12.81,39.83s-2.57,1.9,1.36,2.31a48.47,48.47,0,0,0,16-.77,7.09,7.09,0,0,0,2.47,1.5c-14.2,4.15-30,.33-19.86-3Z"/><path id="_Path_3" data-name="&lt;Path&gt;" class="cls-2" d="M24.91,28.69C27.81,32,24.16,35,24.16,35s7.35-3.79,4-8.54C25,22,22.56,19.84,35.65,12.26c0,0-20.54,5.13-10.73,16.43Z"/><path id="_Path_4" data-name="&lt;Path&gt;" class="cls-1" d="M40.45,51.26s1.7,1.4-1.87,2.48c-6.78,2.05-28.22,2.67-34.17.08-2.14-.93,1.87-2.22,3.14-2.5a8.2,8.2,0,0,1,2.07-.23C7.23,49.42-5.77,54.39,3,55.81,27,59.69,46.66,54.06,40.45,51.26Z"/><path id="_Path_5" data-name="&lt;Path&gt;" class="cls-1" d="M15.35,33s-10.9,2.59-3.86,3.53a81.9,81.9,0,0,0,14.43-.16c4.51-.38,9-1.19,9-1.19a19.23,19.23,0,0,0-2.74,1.47C21.14,39.59-.25,38.24,5.91,35.26A20.61,20.61,0,0,1,15.35,33Z"/><path id="_Path_6" data-name="&lt;Path&gt;" class="cls-1" d="M34.92,44C46.17,38.11,41,32.49,37.33,33.25a8.51,8.51,0,0,0-1.29.35,2,2,0,0,1,1-.74c7.19-2.53,12.71,7.45-2.32,11.4a1,1,0,0,0,.22-.3Z"/><path id="_Path_7" data-name="&lt;Path&gt;" class="cls-2" d="M28.13,0s6.23,6.24-5.91,15.82c-9.74,7.69-2.22,12.08,0,17.09-5.69-5.13-9.86-9.65-7.06-13.85C19.26,12.9,30.64,9.91,28.13,0Z"/><path id="_Path_8" data-name="&lt;Path&gt;" class="cls-1" d="M16.46,59.81c10.8.69,27.4-.38,27.79-5.5,0,0-.75,1.94-8.93,3.48A88.78,88.78,0,0,1,8,58.21s1.38,1.14,8.48,1.6Z"/></g></g></g></svg>