<svg xmlns="http://www.w3.org/2000/svg" viewBox="0 0 60 60"><defs><style>.cls-1{fill:#efda5b;}.cls-2{fill:#323330;}</style></defs><title>javascript</title><g id="Layer_2" data-name="Layer 2"><g id="Resume"><g id="JavaScript"><rect id="_Path_" data-name="&lt;Path&gt;" class="cls-1" width="60" height="60"/><path id="_Path_2" data-name="&lt;Path&gt;" class="cls-2" d="M15.78,50.14l4.59-2.78c.89,1.57,1.69,2.9,3.62,2.9s3-.72,3-3.54V27.55h5.64V46.8c0,5.84-3.42,8.5-8.42,8.5a8.75,8.75,0,0,1-8.46-5.16"/><path id="_Path_3" data-name="&lt;Path&gt;" class="cls-2" d="M35.71,49.54l4.59-2.66c1.21,2,2.78,3.42,5.56,3.42,2.34,0,3.83-1.17,3.83-2.78,0-1.93-1.53-2.62-4.11-3.75l-1.41-.6c-4.07-1.73-6.77-3.91-6.77-8.5,0-4.23,3.22-7.45,8.26-7.45,3.58,0,6.16,1.25,8,4.51l-4.39,2.82c-1-1.73-2-2.42-3.62-2.42A2.45,2.45,0,0,0,43,34.55c0,1.69,1,2.38,3.46,3.42l1.41.6c4.79,2.05,7.49,4.15,7.49,8.86,0,5.07-4,7.85-9.34,7.85s-8.62-2.5-10.27-5.76"/></g></g></g></svg>