<svg xmlns="http://www.w3.org/2000/svg" viewBox="0 0 60.56 60"><defs><style>.cls-1{fill:#21609b;}</style></defs><title>jquery</title><g id="Layer_2" data-name="Layer 2"><g id="Resume"><g id="jQuery"><path id="_Path_" data-name="&lt;Path&gt;" class="cls-1" d="M59.15,44.53l-.27.7c-4.62,9-12.8,14.51-24.48,14.76a34.22,34.22,0,0,1-14.05-2.81A36.3,36.3,0,0,1,3.48,41.25C-1.35,31.9-2.22,18.88,7.83,9.16c.15,0-1.22,2.11-1.06,2.11l-.28.9C-.75,34.83,21.55,54.25,43.22,52a28.47,28.47,0,0,0,15.93-7.5"/><path id="_Path_2" data-name="&lt;Path&gt;" class="cls-1" d="M46,35.16a20.73,20.73,0,0,0,14.52-6.09c-3,7.49-11.5,12.31-23,10.77C28,38.57,18.87,28.91,17.93,19.24c-.69-7,1.77-11.24,5.81-16.34a17.1,17.1,0,0,0-2.06,6C20.14,24.16,33.84,35.08,46,35.16"/><path id="_Path_3" data-name="&lt;Path&gt;" class="cls-1" d="M60,16.25c-.85,1.94-5.73,5.62-7.88,6.08-8.54,1.82-14-2.23-16.87-6.84a21.09,21.09,0,0,1-1.35-3C32.8,8.67,33.31,3,36.62,0A15.55,15.55,0,0,0,36,8.2a18.2,18.2,0,0,0,2.26,4.93,13,13,0,0,0,5.15,4.55A13.71,13.71,0,0,0,46,18.93c2.15.63,6.69,2.3,14-2.68"/></g></g></g></svg>