<svg xmlns="http://www.w3.org/2000/svg" viewBox="0 0 61.12 60"><defs><style>.cls-1{fill:#0f758e;fill-rule:evenodd;}</style></defs><title>mysql</title><g id="Layer_2" data-name="Layer 2"><g id="Resume"><g id="MySQL"><path id="_Path_" data-name="&lt;Path&gt;" class="cls-1" d="M56.3,46.41a19.22,19.22,0,0,0-8.07,1.16c-.62.25-1.62.25-1.71,1,.33.33.37.87.67,1.33a9.7,9.7,0,0,0,2.16,2.54c.87.67,1.75,1.33,2.66,1.91,1.62,1,3.45,1.58,5,2.58.92.58,1.83,1.33,2.75,2,.46.33.74.87,1.33,1.08v-.13c-.29-.37-.37-.91-.66-1.33s-.83-.79-1.25-1.2a19.81,19.81,0,0,0-4.32-4.2c-1.33-.92-4.24-2.16-4.78-3.7L50,49.36a16.7,16.7,0,0,0,2.87-.67c1.41-.37,2.7-.29,4.15-.66.67-.17,1.33-.38,2-.58v-.38c-.75-.75-1.29-1.75-2.08-2.45a55.67,55.67,0,0,0-6.86-5.11c-1.29-.83-3-1.37-4.33-2.08-.5-.25-1.33-.37-1.62-.79a16.69,16.69,0,0,1-1.71-3.2c-1.2-2.28-2.37-4.82-3.41-7.23a44.46,44.46,0,0,0-2.12-4.74C32.64,14.39,28,10.12,20.84,5.92a19.93,19.93,0,0,0-5.32-1.71c-1,0-2.08-.12-3.12-.17a16.58,16.58,0,0,1-1.91-1.46C8.12,1.09,2-2.15.26,2.13-.86,4.84,1.93,7.5,2.88,8.87A19.48,19.48,0,0,1,5,12c.29.71.37,1.46.67,2.2a49.55,49.55,0,0,0,2.16,5.57,19.65,19.65,0,0,0,1.54,2.57c.34.46.92.67,1,1.42-.58.83-.63,2.08-1,3.12-1.5,4.7-.91,10.52,1.21,14,.66,1,2.24,3.33,4.37,2.45,1.87-.75,1.45-3.12,2-5.19.12-.5,0-.83.29-1.16V37c.58,1.16,1.16,2.28,1.71,3.45A23.72,23.72,0,0,0,24.42,46c1,.75,1.79,2,3,2.5V48.4h-.08a4.57,4.57,0,0,0-1-.83,20.45,20.45,0,0,1-2.16-2.49,53.22,53.22,0,0,1-4.65-7.57c-.67-1.29-1.25-2.7-1.79-4-.25-.5-.25-1.25-.67-1.5a15.6,15.6,0,0,0-2,2.82c-.79,1.79-.87,4-1.17,6.28-.17,0-.08,0-.17.08-1.33-.33-1.79-1.7-2.29-2.86a18,18,0,0,1-.37-11.1c.29-.87,1.54-3.61,1-4.45-.25-.79-1.08-1.25-1.54-1.87a16.46,16.46,0,0,1-1.5-2.66c-1-2.33-1.5-4.91-2.58-7.23A22.21,22.21,0,0,0,4.5,7.83,20.58,20.58,0,0,1,2.22,4.59C2,4.13,1.72,3.38,2,2.88a.67.67,0,0,1,.58-.54c.54-.46,2.08.12,2.62.37A21.12,21.12,0,0,1,9.36,4.79c.58.42,1.21,1.21,2,1.42h.87c1.33.29,2.83.08,4.08.46a26.61,26.61,0,0,1,6,2.87,36.89,36.89,0,0,1,13,14.22c.5,1,.71,1.83,1.17,2.82.87,2,2,4.12,2.83,6.11a27.33,27.33,0,0,0,3,5.57c.62.87,3.12,1.33,4.24,1.79a29.77,29.77,0,0,1,2.87,1.16c1.41.87,2.82,1.87,4.16,2.83.66.5,2.74,1.54,2.87,2.37"/><path id="_Path_2" data-name="&lt;Path&gt;" class="cls-1" d="M13.9,10.28a6.64,6.64,0,0,0-1.7.21v.08h.08a14,14,0,0,0,1.33,1.71c.33.67.63,1.33,1,2l.08-.08a2.33,2.33,0,0,0,.88-2.08,9.39,9.39,0,0,1-.5-.87c-.25-.42-.79-.62-1.12-1"/></g></g></g></svg>