<svg xmlns="http://www.w3.org/2000/svg" xmlns:xlink="http://www.w3.org/1999/xlink" viewBox="0 0 60.31 60"><defs><style>.cls-1{fill:url(#linear-gradient);}.cls-2{fill:url(#linear-gradient-2);}</style><linearGradient id="linear-gradient" x1="1055.59" y1="-1176.61" x2="1055.61" y2="-1176.63" gradientTransform="matrix(1849.27, 0, 0, -1853.39, -1952071.77, -2180720.39)" gradientUnits="userSpaceOnUse"><stop offset="0" stop-color="#387eb8"/><stop offset="1" stop-color="#366994"/></linearGradient><linearGradient id="linear-gradient-2" x1="1055.26" y1="-1176.29" x2="1055.27" y2="-1176.3" gradientTransform="matrix(1849.27, 0, 0, -1853.39, -1951426.99, -2180092.67)" gradientUnits="userSpaceOnUse"><stop offset="0" stop-color="#ffe052"/><stop offset="1" stop-color="#ffc331"/></linearGradient></defs><title>python</title><g id="Layer_2" data-name="Layer 2"><g id="Resume"><path class="cls-1" d="M29.94,0C14.63,0,15.58,6.64,15.58,6.64l0,6.88H30.21v2.07H9.8S0,14.47,0,29.92s8.55,14.9,8.55,14.9h5.1V37.65s-.28-8.55,8.42-8.55H36.56s8.14.13,8.14-7.87V8S45.94,0,29.94,0ZM21.88,4.63a2.63,2.63,0,0,1,2.63,2.62h0a2.63,2.63,0,0,1-2.62,2.63h0a2.63,2.63,0,0,1-2.63-2.62h0a2.63,2.63,0,0,1,2.62-2.63Z"/><path class="cls-2" d="M30.37,60c15.31,0,14.36-6.64,14.36-6.64l0-6.88H30.1V44.42H50.52s9.8,1.11,9.8-14.34-8.55-14.9-8.55-14.9h-5.1v7.17s.28,8.55-8.42,8.55H23.75s-8.14-.13-8.14,7.87V52s-1.24,8,14.76,8Zm8.06-4.63a2.63,2.63,0,0,1-2.63-2.62h0a2.63,2.63,0,0,1,2.62-2.63h0a2.63,2.63,0,0,1,2.63,2.62h0a2.63,2.63,0,0,1-2.62,2.63h0Z"/></g></g></svg>