<svg xmlns="http://www.w3.org/2000/svg" viewBox="0 0 80.05 60"><defs><style>.cls-1{fill:#cc6698;}</style></defs><title>sass</title><g id="Layer_2" data-name="Layer 2"><g id="Resume"><path id="SASS" class="cls-1" d="M68.89,34.49a16.46,16.46,0,0,0-7.25,1.69A15.18,15.18,0,0,1,60,32.42a10,10,0,0,1-.14-3.16,27.6,27.6,0,0,1,.95-3.4c0-.14-.17-.83-1.79-.84s-3,.31-3.16.74a15.92,15.92,0,0,0-.67,2.38c-.28,1.46-3.22,6.68-4.89,9.41a9.8,9.8,0,0,1-1.11-2.75,10,10,0,0,1-.14-3.16,27.6,27.6,0,0,1,.95-3.4c0-.14-.17-.83-1.79-.84s-3,.31-3.16.74-.34,1.42-.67,2.38-4.24,9.67-5.26,11.92c-.52,1.15-1,2.07-1.3,2.7h0l-.05.11c-.27.54-.44.83-.44.83h0c-.22.39-.45.76-.57.76a5.05,5.05,0,0,1,0-2.49c.58-3,2-7.73,2-7.89s.26-.9-.91-1.33a1.45,1.45,0,0,0-1.65.28c-.1,0-.18.25-.18.25s1.27-5.3-2.42-5.3c-2.31,0-5.5,2.52-7.08,4.81l-5.37,2.94L18.6,39.56l-.17-.19C14,34.6,5.69,31.22,6,24.81c.13-2.33.94-8.47,15.89-15.92,12.25-6.1,22-4.42,23.74-.7,2.42,5.32-5.24,15.2-18,16.62-4.85.54-7.4-1.33-8-2s-.77-.77-1-.63c-.41.23-.15.88,0,1.26A7.54,7.54,0,0,0,23.26,27c2.34.77,8,1.19,14.91-1.47,7.71-3,13.72-11.27,12-18.2S36.64-2,25.58,1.9C19,4.24,11.87,7.91,6.74,12.71.65,18.4-.32,23.36.08,25.44,1.5,32.8,11.65,37.6,15.71,41.15l-.56.31c-2,1-9.77,5.06-11.71,9.33-2.2,4.85.35,8.33,2,8.8C10.7,61,16.06,58.44,18.93,54.14s2.53-9.88,1.21-12.43l-.05-.09,1.59-.94c1-.61,2.05-1.18,2.94-1.66a19.76,19.76,0,0,0-1,5.32c-.22,2.75.91,6.31,2.38,7.72a2.62,2.62,0,0,0,1.93.63c1.72,0,2.5-1.43,3.37-3.12,1.06-2.07,2-4.49,2-4.49s-1.18,6.52,2,6.52c1.17,0,2.35-1.52,2.87-2.29h0l.09-.15.19-.3v0c.47-.82,1.51-2.68,3.08-5.75,2-4,4-8.94,4-8.94a26.59,26.59,0,0,0,.77,3.23,30.16,30.16,0,0,0,1.67,3.74c-.47.65-.76,1-.76,1v0c-.38.5-.8,1-1.24,1.56a45.21,45.21,0,0,0-3.75,4.7,1.28,1.28,0,0,0,.35,1.72,3.14,3.14,0,0,0,2,.32,9,9,0,0,0,2.94-.67A9.9,9.9,0,0,0,50,48.44a5.63,5.63,0,0,0,2.42-5,10.1,10.1,0,0,0-.92-3.52l.43-.62a66.84,66.84,0,0,0,4.38-7.58A26.57,26.57,0,0,0,57.07,35a22.51,22.51,0,0,0,1.42,3.22,13.76,13.76,0,0,0-4.26,5.52c-.92,2.66-.2,3.86,1.16,4.14a4.18,4.18,0,0,0,2.14-.43A9.9,9.9,0,0,0,60.23,46c1.57-1.15,3.07-2.76,3-4.95a9.28,9.28,0,0,0-.68-2.93,15.29,15.29,0,0,1,7.76-.9c7,.81,8.33,5.16,8.07,7a4.59,4.59,0,0,1-2.21,3.12c-.49.3-.64.41-.6.63s.29.31.7.24A5.43,5.43,0,0,0,80,43.39C80.21,39.13,76.12,34.45,68.89,34.49ZM15.23,52.58C12.92,55.09,9.7,56,8.32,55.24s-.9-4.57,1.93-7.24a36.62,36.62,0,0,1,5.43-4l1.43-.86.16-.09h0l.36-.21A10,10,0,0,1,15.23,52.58ZM32,41.16c-.8,2-2.48,7-3.51,6.7s-1.41-4-.18-7.79a17.36,17.36,0,0,1,2.74-5c1.26-1.41,2.64-1.87,3-1.3C34.49,34.48,32.53,39.93,32,41.16Zm13.88,6.62c-.34.18-.65.29-.8.2s.14-.3.14-.3S47,45.82,47.67,45c.4-.49.86-1.08,1.36-1.74,0,.07,0,.13,0,.19C49,45.66,46.87,47.17,45.91,47.78ZM56.6,45.34c-.25-.18-.21-.76.62-2.58a9.76,9.76,0,0,1,2.38-3.07,4.37,4.37,0,0,1-3,5.65Z"/></g></g></svg>